HIERARCHY
ROOT Hips
{
  OFFSET 0.0 0.0 0.0
  CHANNELS 6 Xposition Yposition Zposition Zrotation Yrotation Xrotation
  JOINT LHipJoint
  {
    OFFSET 0.0 0.0 0.0
    CHANNELS 3 Zrotation Yrotation Xrotation
    JOINT LeftUpLeg
    {
      OFFSET 1.363059998 -1.794630051 0.839290023
      CHANNELS 3 Zrotation Yrotation Xrotation
      JOINT LeftLeg
      {
        OFFSET 2.448110104 -6.726130009 0.0
        CHANNELS 3 Zrotation Yrotation Xrotation
        JOINT LeftFoot
        {
          OFFSET 2.562200069 -7.039589882 0.0
          CHANNELS 3 Zrotation Yrotation Xrotation
          JOINT LeftToeBase
          {
            OFFSET 0.157639995 -0.433109999 2.322550058
            CHANNELS 3 Zrotation Yrotation Xrotation
            End Site
            {
              OFFSET 0.0 -0.0 1.189659953
            }
          }
        }
      }
    }
  }
  JOINT RHipJoint
  {
    OFFSET 0.0 0.0 0.0
    CHANNELS 3 Zrotation Yrotation Xrotation
    JOINT RightUpLeg
    {
      OFFSET -1.305520058 -1.794630051 0.839290023
      CHANNELS 3 Zrotation Yrotation Xrotation
      JOINT RightLeg
      {
        OFFSET -2.54253006 -6.985549927 0.0
        CHANNELS 3 Zrotation Yrotation Xrotation
        JOINT RightFoot
        {
          OFFSET -2.568259954 -7.056230068 0.0
          CHANNELS 3 Zrotation Yrotation Xrotation
          JOINT RightToeBase
          {
            OFFSET -0.164729998 -0.452589989 2.363149881
            CHANNELS 3 Zrotation Yrotation Xrotation
            End Site
            {
              OFFSET -0.0 -0.0 1.21081996
            }
          }
        }
      }
    }
  }
  JOINT LowerBack
  {
    OFFSET 0.0 0.0 0.0
    CHANNELS 3 Zrotation Yrotation Xrotation
    JOINT Spine
    {
      OFFSET 0.028270001 2.035589933 -0.193379998
      CHANNELS 3 Zrotation Yrotation Xrotation
      JOINT Spine1
      {
        OFFSET 0.05672 2.04885006 -0.042750001
        CHANNELS 3 Zrotation Yrotation Xrotation
        JOINT Neck
        {
          OFFSET 0.0 0.0 0.0
          CHANNELS 3 Zrotation Yrotation Xrotation
          JOINT Neck1
          {
            OFFSET -0.054170001 1.74624002 0.172020003
            CHANNELS 3 Zrotation Yrotation Xrotation
            JOINT Head
            {
              OFFSET 0.10407 1.761360049 -0.123970002
              CHANNELS 3 Zrotation Yrotation Xrotation
              End Site
              {
                OFFSET 0.0372 1.770439982 -0.062410001
              }
            }
          }
        }
        JOINT LeftShoulder
        {
          OFFSET 0.0 0.0 0.0
          CHANNELS 3 Zrotation Yrotation Xrotation
          JOINT LeftArm
          {
            OFFSET 3.362410069 1.200889945 -0.311210006
            CHANNELS 3 Zrotation Yrotation Xrotation
            JOINT LeftForeArm
            {
              OFFSET 4.982999802 -0.0 -0.0
              CHANNELS 3 Zrotation Yrotation Xrotation
              JOINT LeftHand
              {
                OFFSET 3.483560085 -0.0 -0.0
                CHANNELS 3 Zrotation Yrotation Xrotation
                JOINT LeftFingerBase
                {
                  OFFSET 0.0 0.0 0.0
                  CHANNELS 3 Zrotation Yrotation Xrotation
                  JOINT LeftHandIndex1
                  {
                    OFFSET 0.715260029 -0.0 -0.0
                    CHANNELS 3 Zrotation Yrotation Xrotation
                    End Site
                    {
                      OFFSET 0.576659977 -0.0 -0.0
                    }
                  }
                }
                JOINT LThumb
                {
                  OFFSET 0.0 0.0 0.0
                  CHANNELS 3 Zrotation Yrotation Xrotation
                  End Site
                  {
                    OFFSET 0.585470021 -0.0 0.585470021
                  }
                }
              }
            }
          }
        }
        JOINT RightShoulder
        {
          OFFSET 0.0 0.0 0.0
          CHANNELS 3 Zrotation Yrotation Xrotation
          JOINT RightArm
          {
            OFFSET -3.136600018 1.374050021 -0.404650003
            CHANNELS 3 Zrotation Yrotation Xrotation
            JOINT RightForeArm
            {
              OFFSET -5.241899967 -0.0 -0.0
              CHANNELS 3 Zrotation Yrotation Xrotation
              JOINT RightHand
              {
                OFFSET -3.444169998 -0.0 -0.0
                CHANNELS 3 Zrotation Yrotation Xrotation
                JOINT RightFingerBase
                {
                  OFFSET 0.0 0.0 0.0
                  CHANNELS 3 Zrotation Yrotation Xrotation
                  JOINT RightHandIndex1
                  {
                    OFFSET -0.622529984 -0.0 -0.0
                    CHANNELS 3 Zrotation Yrotation Xrotation
                    End Site
                    {
                      OFFSET -0.501900017 -0.0 -0.0
                    }
                  }
                }
                JOINT RThumb
                {
                  OFFSET 0.0 0.0 0.0
                  CHANNELS 3 Zrotation Yrotation Xrotation
                  End Site
                  {
                    OFFSET -0.509559989 -0.0 0.509559989
                  }
                }
              }
            }
          }
        }
      }
    }
  }
}
MOTION
Frames: 7
Frame Time: 0.0083333
11.6239748 28.369699478 6.47086668 -4.521699905 -0.579800189 -35.927101135 0.0 -0.0 0.0 -1.95419991 -6.572399139 -34.969493866 10.652199745 17.760597229 61.646816254 0.517100096 -3.802099466 15.507202148 0.011399998 -0.690699995 -1.897999883 0.0 -0.0 0.0 20.009500504 3.443297863 -32.625797272 -5.691000462 -14.122098923 43.728809357 0.431799918 -14.674497604 4.294599533 -0.021900004 -0.954400063 2.623300552 -0.40170002 0.01840003 36.121894836 0.389999986 -0.093299985 11.791399956 0.653599977 -0.078799993 -4.952699661 -9.678602219 -3.540999889 -3.750700235 8.703700066 -4.926700592 9.944601059 4.021300316 -2.391799927 4.025700092 0.0 -0.0 0.0 -5.584598541 -42.127494812 -35.857402802 117.611831665 -56.913516998 -83.664733887 0.0 -0.0 7.233001232 24.861400604 -3.62460041 -1.677900076 -7.125 0.0 0.0 -1.334600091 25.985696793 0.615099967 0.0 -0.0 0.0 23.531099319 58.998409271 -26.820793152 -133.089019775 51.671100616 -96.271400452 0.0 -0.0 9.410099983 -29.114700317 -14.691398621 8.039498329 7.125 -0.0 0.0 -1.504599929 -46.678798676 0.062399656 
11.624674797 28.369600296 6.472066879 -4.196400166 -0.298300058 -36.067901611 0.0 -0.0 0.0 -2.493299007 -6.775800228 -34.881401062 10.337503433 17.595304489 60.61050415 0.511700034 -3.299900532 15.121902466 0.002 -0.289299965 -0.794800103 0.0 -0.0 0.0 19.571899414 3.200099707 -32.526599884 -5.941800594 -14.371700287 44.747898102 0.458000004 -14.669300079 3.80259943 -0.038800009 -1.271800041 3.49690032 -0.81309998 0.135700166 36.352703094 0.342099994 -0.092 11.688500404 0.818300009 -0.083700009 -5.143500805 -9.645700455 -3.123899937 -3.809699774 8.47619915 -4.388500214 10.997099876 3.978099823 -2.135799885 4.296801567 0.0 -0.0 0.0 -5.80259943 -42.45009613 -35.574108124 117.349601746 -56.975803375 -83.444999695 0.0 -0.0 7.240600109 24.75399971 -3.604900122 -1.660600066 -7.125 0.0 0.0 -1.415899873 26.010797501 0.651700079 0.0 -0.0 0.0 23.784395218 58.835891724 -26.420793533 -132.904022217 51.754894257 -96.126213074 0.0 -0.0 9.454199791 -29.408008575 -14.456400871 8.009601593 7.125 -0.0 0.0 -1.809699893 -46.457206726 0.065099843 
11.625775337 28.375499725 6.473066807 -4.08109808 -0.233499736 -36.115497589 0.0 -0.0 0.0 -2.671799898 -6.936199188 -34.895595551 10.029902458 17.426607132 59.58821106 0.490700066 -2.931400537 14.62849617 0.0022 -0.305499971 -0.839299917 0.0 -0.0 0.0 19.462696075 3.128799915 -32.473205566 -6.201899529 -14.621099472 45.786594391 0.47300005 -14.727398872 3.600800276 -0.059300024 -1.570800185 4.321000576 -0.932900012 0.205699891 36.337593079 0.304199994 -0.047899999 11.706601143 0.825499952 -0.063300036 -5.118799686 -9.77240181 -3.395100355 -3.415099859 8.555400848 -4.805000782 11.284101486 4.006299019 -2.351399899 4.361199856 0.0 -0.0 0.0 -5.732995987 -42.938697815 -35.59620285 116.920928955 -57.07611084 -83.085327148 0.0 -0.0 7.306600094 24.791297913 -3.648400307 -1.683499813 -7.125 0.0 0.0 -1.387999892 25.961801529 0.640500069 0.0 -0.0 0.0 23.934089661 58.71629715 -26.223108292 -132.612213135 51.886081696 -95.89680481 0.0 -0.0 9.540802002 -29.714195251 -14.270103455 8.00770092 7.125 -0.0 0.0 -2.120199203 -46.291397095 0.06759984 
11.625475883 28.377000809 6.475366592 -3.957399607 -0.153998867 -36.188396454 0.0 -0.0 0.0 -2.875600815 -7.063601971 -34.896499634 9.735098839 17.25819397 58.599300385 0.472400069 -2.602699995 14.194602013 0.006399999 -0.516299963 -1.418799877 0.0 -0.0 0.0 19.340099335 3.04040122 -32.362594604 -6.474598408 -14.87299633 46.858093262 0.483099937 -14.933197975 3.718600035 -0.078800008 -1.810299993 4.981699944 -1.009899855 0.248799697 36.272590637 0.23010008 -0.024500003 11.80700016 0.779399812 -0.051900014 -4.986599922 -9.752100945 -3.463200092 -3.273400068 8.478600502 -4.925199986 11.725000381 3.97550106 -2.417199612 4.48029995 0.0 -0.0 0.0 -5.552000523 -43.351894379 -35.868888855 116.636016846 -57.141712189 -82.846107483 0.0 -0.0 7.242402077 24.444704056 -3.793099403 -1.722400069 -7.125 0.0 0.0 -1.651700377 25.814105988 0.76789999 0.0 -0.0 0.0 23.8183918 58.495811462 -26.195011139 -132.271118164 52.037376404 -95.628204346 0.0 -0.0 9.490298271 -29.768795013 -14.515699387 8.158596992 7.125 -0.0 0.0 -2.148998976 -46.576789856 0.08369977 
11.626275063 28.36689949 6.479266644 -4.037199497 -0.178599492 -36.315601349 0.0 -0.0 0.0 -2.830100536 -7.137600899 -34.893100739 9.464400291 17.097400665 57.682697296 0.462399811 -2.282799482 13.880297661 0.0035 -0.380899966 -1.046599984 0.0 -0.0 0.0 19.444498062 2.889399529 -32.188404083 -6.7575984 -15.124296188 47.951591492 0.548100293 -15.38310051 3.169501066 -0.180500001 -2.736799955 7.546898842 -0.406399906 0.370499909 35.990699768 -0.138899967 0.320599973 12.764398575 -0.040799994 0.143599987 -3.983098745 -7.985099792 -3.894000292 -6.179300785 7.79020071 -5.424899578 12.923899651 3.389300346 -2.553100348 5.32460022 0.0 -0.0 0.0 -3.095699072 -44.819290161 -38.046791077 116.068397522 -57.269695282 -82.369003296 0.0 -0.0 7.334998131 24.323900223 -3.972500324 -1.793599963 -7.125 0.0 0.0 -1.744399786 25.621196747 0.818899989 0.0 -0.0 0.0 21.849498749 58.031105042 -29.24720192 -131.994216919 52.158790588 -95.409706116 0.0 -0.0 9.542000771 -29.678705215 -14.929497719 8.352600098 7.125 -0.0 0.0 -2.021300793 -47.03030014 0.101300187 
11.628575325 28.36289978 6.480966568 -4.140199661 -0.267199337 -36.438995361 0.0 -0.0 0.0 -2.73450017 -7.129499912 -34.920490265 9.211003304 16.941602707 56.816886902 0.438500017 -2.069299936 13.435400963 0.0016 -0.256200016 -0.70389998 0.0 -0.0 0.0 19.625894547 2.772199154 -32.054103851 -7.049601078 -15.373598099 49.061794281 0.58619982 -15.618395805 2.805800438 -0.236900046 -3.132400036 8.647499084 -0.276300013 0.414899945 35.997200012 -0.097799994 0.424300015 12.827800751 -0.101399988 0.197400004 -3.916299105 -7.608399868 -3.848099947 -6.527299881 7.329402447 -5.362300873 13.795203209 3.182300329 -2.522500277 5.627400398 0.0 -0.0 0.0 -3.0297997 -45.136493683 -38.001598358 115.558906555 -57.381710052 -81.940116882 0.0 -0.0 7.462898731 24.711803436 -4.174500465 -1.918700457 -7.125 0.0 0.0 -1.453599691 25.385993958 0.690300167 0.0 -0.0 0.0 21.581504822 57.659706116 -29.350399017 -131.743804932 52.267498016 -95.211791992 0.0 -0.0 9.429200172 -29.718696594 -15.071596146 8.442698479 7.125 -0.0 0.0 -2.045099974 -47.19670105 0.110900119 
11.628476143 28.374200821 6.478966713 -4.162099361 -0.303499907 -36.518001556 0.0 -0.0 0.0 -2.71750021 -7.11550045 -34.995498657 8.968600273 16.787405014 55.981300354 0.423200011 -1.857899785 13.105599403 0.0002 0.084400021 0.231899977 0.0 -0.0 0.0 19.732397079 2.680699348 -31.939599991 -7.342699528 -15.613799095 50.159011841 0.590399981 -15.77350235 2.98939991 -0.191900015 -2.82130003 7.781599522 -0.768299937 0.282999992 36.230903625 0.309799939 0.11019998 11.92469883 0.689599931 0.016099989 -4.84649992 -9.043100357 -3.17840004 -3.792699814 7.256401539 -4.510399342 14.190401077 3.5006001 -2.241800547 5.244800568 0.0 -0.0 0.0 -5.64389658 -43.95980072 -35.691902161 115.340133667 -57.429004669 -81.755729675 0.0 -0.0 7.52589941 25.046895981 -4.416800022 -2.061000109 -7.125 0.0 0.0 -1.204900026 25.106599808 0.579999983 0.0 -0.0 0.0 23.216985703 57.809883118 -26.104600906 -131.442611694 52.396900177 -94.973304749 0.0 -0.0 9.242099762 -29.773195267 -15.083498001 8.467498779 7.125 -0.0 0.0 -2.096500874 -47.21830368 0.114800408 
